<?xml version="1.0" standalone="no"?>
<!DOCTYPE svg PUBLIC "-//W3C//DTD SVG 20010904//EN"
 "http://www.w3.org/TR/2001/REC-SVG-20010904/DTD/svg10.dtd">
<svg version="1.0" xmlns="http://www.w3.org/2000/svg"
 width="912.000000pt" height="912.000000pt" viewBox="0 0 912.000000 912.000000"
 preserveAspectRatio="xMidYMid meet">
<metadata>
Created by potrace 1.14, written by Peter Selinger 2001-2017
</metadata>
<g transform="translate(0.000000,912.000000) scale(0.100000,-0.100000)"
fill="#000000" stroke="none">
<path d="M5460 8617 c-3 -3 -41 -8 -85 -11 -100 -9 -125 -11 -200 -21 -33 -4
-76 -9 -95 -11 -19 -1 -35 -3 -35 -4 0 -3 -104 -16 -167 -21 -21 -2 -38 -6
-38 -9 0 -3 -10 -5 -22 -6 -22 0 -71 -7 -133 -19 -105 -20 -228 -47 -280 -61
-33 -8 -67 -17 -75 -19 -83 -18 -346 -151 -371 -188 -3 -5 -10 -9 -15 -9 -8 0
-32 -18 -107 -81 -46 -37 -125 -117 -163 -162 -21 -26 -46 -55 -55 -64 -29
-29 -139 -194 -139 -208 0 -7 -5 -13 -11 -13 -5 0 -8 -4 -4 -9 3 -5 -2 -17
-11 -25 -8 -9 -13 -16 -10 -16 2 0 0 -15 -5 -32 -5 -18 -12 -58 -15 -88 -4
-30 -8 -56 -9 -58 -2 -2 -14 3 -27 12 -12 8 -30 14 -38 12 -50 -10 -72 -21
-94 -50 -21 -28 -24 -41 -21 -92 3 -32 7 -70 10 -84 5 -25 7 -35 20 -135 4
-27 9 -58 11 -67 2 -10 6 -26 8 -35 2 -10 7 -43 11 -73 4 -30 9 -64 11 -75 10
-49 47 -262 49 -280 1 -11 5 -27 8 -35 5 -14 16 -61 18 -77 2 -11 48 -143 63
-178 7 -16 19 -46 27 -65 38 -98 206 -388 249 -430 3 -3 25 -30 50 -60 24 -30
86 -96 138 -147 59 -59 95 -102 98 -119 3 -15 7 -31 10 -36 3 -4 7 -16 9 -25
2 -10 15 -63 30 -118 15 -55 28 -108 28 -117 1 -10 5 -18 9 -18 4 0 6 -8 6
-17 -1 -16 25 -118 67 -268 8 -27 17 -65 20 -84 3 -19 9 -39 13 -45 3 -6 8
-22 10 -36 2 -14 11 -54 21 -90 11 -36 22 -78 27 -95 9 -35 11 -42 14 -52 1
-5 2 -12 1 -16 -8 -46 154 -205 323 -317 105 -70 290 -162 339 -169 4 0 20 -7
35 -14 46 -24 249 -74 328 -81 17 -2 35 -5 40 -8 33 -18 461 -13 566 7 12 3
40 7 62 11 48 7 223 51 251 64 11 5 45 16 75 26 30 9 75 27 100 39 25 12 63
31 85 41 55 27 169 96 173 106 2 4 10 8 18 8 8 0 14 5 14 10 0 6 4 10 9 10 12
0 59 39 153 130 78 74 94 102 112 196 2 11 14 57 26 104 22 84 26 100 35 141
2 11 6 28 9 37 3 9 8 28 10 42 3 14 12 52 21 85 8 33 17 69 19 80 3 11 10 36
16 55 6 19 13 46 15 60 2 14 22 99 45 190 31 125 46 169 63 183 44 37 193 186
237 237 25 29 50 58 55 64 6 6 22 27 35 46 13 19 27 37 30 40 4 3 35 50 70
105 34 55 70 111 78 125 9 14 17 27 17 30 1 3 25 55 54 115 69 143 116 257
126 305 2 8 4 16 5 18 2 1 4 7 5 12 1 6 3 11 5 13 1 1 3 9 5 17 1 8 10 42 20
75 9 33 16 77 15 98 0 23 3 36 9 33 5 -3 8 2 6 11 -2 10 -4 18 -5 18 -1 0 -3
8 -5 18 -2 9 1 15 6 11 5 -3 9 0 9 5 0 6 -6 11 -12 11 -10 0 -10 2 -1 8 17 11
17 360 0 381 -9 12 -9 13 1 7 7 -4 12 -1 12 9 0 9 -5 13 -11 9 -8 -5 -8 -1 0
14 14 25 14 43 1 22 -7 -11 -10 4 -11 50 0 36 -2 74 -3 85 -2 11 -6 44 -10 73
-7 60 -27 105 -63 138 -20 18 -29 21 -55 14 -35 -10 -68 -45 -68 -71 0 -33
-18 -30 -30 5 -11 34 -69 130 -106 176 -56 68 -202 206 -289 270 -55 42 -81
60 -140 100 -208 141 -479 259 -675 294 -14 2 -41 7 -60 11 -19 3 -46 7 -60 9
-14 2 -32 6 -40 9 -14 5 -58 11 -157 21 -23 3 -65 8 -95 11 -29 4 -64 9 -78
10 -14 2 -63 6 -110 10 -47 4 -101 8 -120 10 -75 7 -345 16 -350 12z m2304
-1319 c-1 -110 -10 -262 -20 -343 -3 -22 -7 -56 -9 -75 -8 -75 -47 -247 -71
-314 -14 -39 -30 -86 -35 -103 -6 -18 -15 -33 -21 -33 -6 0 -9 -3 -5 -6 8 -9
-46 -103 -114 -199 -62 -87 -194 -237 -202 -228 -3 2 -1 19 4 36 5 18 12 46
15 62 8 48 31 161 59 285 34 155 36 162 40 185 9 47 18 86 42 195 22 98 30
120 57 146 82 81 139 157 135 180 0 4 3 10 8 13 14 9 62 128 56 135 -4 3 0 6
7 6 7 0 11 2 8 5 -3 3 3 33 13 66 11 34 19 72 19 85 0 14 3 23 8 21 4 -3 6
-56 6 -119z m-4154 -274 l83 -83 27 -138 c16 -76 31 -151 34 -168 3 -16 12
-64 21 -105 8 -41 17 -88 19 -105 3 -16 5 -30 6 -30 1 0 3 -10 6 -22 2 -12 15
-73 28 -135 l24 -113 -24 30 c-13 17 -30 42 -37 58 -6 15 -16 27 -20 27 -5 0
-6 4 -2 9 3 5 1 12 -4 15 -11 7 -101 189 -101 205 0 6 -4 19 -10 29 -14 24
-86 258 -96 311 -1 7 -14 63 -28 125 -14 61 -27 122 -30 136 -2 14 -7 43 -10
65 l-7 40 19 -34 c10 -19 56 -71 102 -117z"/>
<path d="M2657 4514 c-2 -2 -72 -14 -94 -16 -7 -1 -13 -4 -13 -8 0 -3 -10 -6
-21 -7 -25 -2 -115 -55 -156 -92 -40 -36 -90 -71 -103 -71 -5 0 -10 -4 -10 -9
0 -5 -8 -11 -17 -15 -10 -3 -83 -49 -163 -101 -80 -52 -190 -122 -245 -157
-55 -34 -102 -65 -105 -68 -8 -9 -89 -60 -95 -60 -3 0 -11 -5 -18 -10 -7 -6
-32 -23 -57 -39 -25 -15 -92 -59 -150 -96 -58 -38 -107 -67 -109 -66 -2 2 -7
-1 -10 -6 -3 -5 -31 -24 -61 -43 -83 -52 -100 -75 -100 -129 0 -59 38 -102
130 -150 36 -19 81 -44 100 -57 19 -13 40 -24 47 -24 7 0 13 -4 13 -10 0 -5 7
-10 15 -10 8 0 15 -5 15 -11 0 -5 5 -7 10 -4 6 3 10 2 10 -3 0 -5 8 -12 18
-16 16 -5 28 -12 83 -48 14 -10 29 -15 33 -11 3 3 6 1 6 -6 0 -6 11 -16 25
-21 14 -5 50 -26 80 -45 31 -19 60 -35 65 -35 6 0 10 -5 10 -12 0 -6 3 -8 7
-5 3 4 13 1 22 -7 9 -7 41 -26 71 -42 30 -16 57 -31 60 -34 3 -3 23 -16 45
-29 22 -13 168 -98 325 -189 157 -91 299 -173 315 -183 17 -10 50 -30 75 -44
25 -14 97 -56 160 -94 172 -104 205 -121 288 -142 126 -32 255 -20 375 35 152
69 206 97 212 106 13 21 145 52 198 47 88 -10 89 -10 297 -123 14 -8 31 -14
38 -14 6 0 12 -5 12 -10 0 -6 3 -9 8 -8 4 1 97 -42 207 -96 240 -119 412 -196
419 -188 4 3 6 0 6 -6 0 -7 3 -11 8 -11 4 1 9 0 12 -1 3 -1 12 -3 20 -5 46
-11 194 -68 201 -78 3 -5 9 -8 13 -8 3 1 39 -15 79 -36 39 -20 74 -37 77 -38
3 0 12 -5 20 -10 21 -14 107 -61 160 -87 25 -13 47 -26 50 -29 3 -3 19 -12 35
-21 34 -18 173 -95 225 -126 19 -12 46 -27 60 -35 102 -56 191 -107 235 -134
11 -7 36 -21 55 -32 19 -10 93 -53 164 -95 70 -42 132 -76 137 -76 5 0 9 -5 9
-11 0 -5 5 -7 10 -4 6 3 10 1 10 -4 0 -6 4 -11 8 -11 7 0 213 -119 238 -137
10 -8 47 -29 117 -65 20 -11 37 -24 37 -28 0 -5 9 -11 19 -15 23 -7 155 -135
196 -190 53 -71 69 -87 115 -113 25 -14 53 -32 62 -40 9 -8 22 -11 27 -7 6 3
11 2 11 -3 0 -5 8 -12 18 -15 9 -2 58 -17 107 -31 128 -38 211 -43 270 -17 62
27 137 107 177 188 39 79 39 81 40 163 1 89 -11 153 -39 201 -16 28 -84 77
-137 100 -12 5 -52 27 -91 49 -38 22 -86 48 -105 58 -19 9 -37 19 -40 22 -3 3
-18 12 -35 20 -16 8 -47 25 -67 37 -21 13 -44 23 -52 23 -8 0 -16 7 -20 15 -3
8 -9 14 -13 13 -4 -1 -37 14 -73 34 -36 20 -85 47 -110 60 -25 14 -61 34 -81
46 -21 11 -66 35 -100 53 -35 18 -92 50 -127 71 -34 21 -65 38 -68 38 -4 0
-48 24 -98 52 -50 29 -93 53 -96 53 -3 0 -25 12 -50 26 -63 36 -257 143 -338
186 -37 19 -87 47 -112 61 -120 67 -224 122 -231 122 -4 0 -9 3 -11 8 -1 4
-28 19 -58 35 -74 37 -114 60 -118 70 -2 4 -10 7 -18 7 -7 0 -48 20 -90 45
-41 25 -78 45 -81 45 -2 0 -35 17 -71 39 -66 38 -155 86 -262 143 -30 16 -82
45 -115 64 -33 19 -76 42 -95 52 -19 9 -36 20 -38 25 -2 4 -12 7 -23 7 -10 0
-19 3 -19 8 0 4 -10 12 -23 18 -79 38 -269 142 -304 165 -100 69 -100 127 -2
230 113 118 140 225 86 339 -43 91 -107 149 -228 208 -59 29 -112 52 -118 52
-6 0 -11 5 -11 11 0 5 -4 7 -10 4 -5 -3 -10 -1 -10 6 0 7 -3 9 -7 6 -3 -4 -15
0 -25 10 -10 9 -18 13 -18 10 0 -6 -120 50 -242 114 -32 17 -58 27 -58 22 0
-4 -4 -3 -8 3 -7 12 -257 134 -273 134 -5 0 -9 5 -9 10 0 6 -6 10 -13 10 -6 0
-80 33 -162 74 -83 40 -204 99 -270 131 -66 32 -183 88 -260 126 -107 51 -154
69 -193 71 -29 2 -54 3 -55 2z"/>
</g>
</svg>
