<svg viewBox="0 0 28 28" fill="none" xmlns="http://www.w3.org/2000/svg"><path clip-rule="evenodd" d="M21.619 10.215a2.71 2.71 0 1 0-3.833-3.833 2.71 2.71 0 0 0 3.832 3.833m-1.13-2.704a1.114 1.114 0 1 1-1.575 1.576A1.114 1.114 0 0 1 20.49 7.51" fill="#000" fill-rule="evenodd"/><path clip-rule="evenodd" d="M1.584 13.977a1.996 1.996 0 0 0 0 2.822l9.617 9.617c.78.779 2.043.779 2.822 0l12.393-12.393c.374-.374.584-.882.584-1.411V2.995A1.995 1.995 0 0 0 25.005 1h-9.617c-.53 0-1.037.21-1.41.584zm11.735 10.32a1 1 0 0 1-1.414 0l-8.202-8.202a1 1 0 0 1 0-1.414L15.095 3.288a1 1 0 0 1 .707-.293h8.203a1 1 0 0 1 1 1v8.203a1 1 0 0 1-.293.707z" fill="#000" fill-rule="evenodd"/></svg>