<?xml version="1.0" standalone="no"?>
<!DOCTYPE svg PUBLIC "-//W3C//DTD SVG 20010904//EN"
 "http://www.w3.org/TR/2001/REC-SVG-20010904/DTD/svg10.dtd">
<svg version="1.0" xmlns="http://www.w3.org/2000/svg"
 width="256.000000pt" height="256.000000pt" viewBox="0 0 256.000000 256.000000"
 preserveAspectRatio="xMidYMid meet">
<metadata>
Created by potrace 1.14, written by Peter Selinger 2001-2017
</metadata>
<g transform="translate(0.000000,256.000000) scale(0.100000,-0.100000)"
fill="#000000" stroke="none">
<path d="M1235 2536 c-30 -14 -104 -91 -168 -177 -144 -192 -240 -433 -264
-669 -13 -114 -4 -525 12 -607 1 -10 6 -47 10 -83 4 -36 8 -74 10 -85 8 -60
26 -184 29 -202 3 -12 -10 -37 -30 -64 -58 -73 -81 -102 -113 -143 -17 -22
-29 -46 -27 -55 3 -9 7 -29 10 -46 3 -16 12 -75 21 -130 8 -55 17 -111 19
-125 5 -37 4 -37 135 67 66 53 85 61 96 43 3 -5 21 -10 40 -10 23 0 35 -5 39
-17 2 -10 14 -50 26 -90 l21 -72 65 0 c36 1 68 -2 71 -5 3 -3 5 -17 6 -31 0
-22 3 -26 26 -23 20 2 27 9 29 30 2 16 9 28 15 29 7 0 46 1 86 2 l75 2 21 85
c20 81 22 85 50 88 17 2 34 8 40 13 19 19 17 20 195 -121 29 -24 35 -17 44 55
4 28 9 64 12 80 14 89 25 152 29 171 4 20 -7 39 -68 114 -116 144 -111 131
-93 230 9 49 40 288 52 410 10 93 12 469 3 503 -4 18 -18 73 -29 122 -25 105
-75 227 -139 338 -25 44 -51 88 -57 99 -39 67 -204 257 -241 276 -26 14 -21
14 -58 -2z"/>
</g>
</svg>
